<?xml version="1.0" standalone="no"?><!DOCTYPE svg PUBLIC "-//W3C//DTD SVG 1.1//EN" "http://www.w3.org/Graphics/SVG/1.1/DTD/svg11.dtd"><svg class="icon" width="200px" height="188.93px" viewBox="0 0 1084 1024" version="1.1" xmlns="http://www.w3.org/2000/svg"><path fill="#cdcdcd" d="M1010.578809 604.436216c10.18497 64.183942 10.309177 130.013626 3.508846 194.383879-4.844071 34.777946-46.329193 32.355911-72.505808 37.231033-3.850415 18.258422-3.477795 38.286793-13.352247 54.526852-20.214681 12.638057-45.273434 9.65709-67.816996 10.619694-82.349209-0.776293-164.698418-0.403673-246.923419-0.403672-0.124207 29.84072-0.124207 59.774595-0.124207 89.615315H543.094895C372.248233 959.233373 200.935796 930.634722 29.871772 900.887157 29.747565 639.742042 29.747565 378.690082 29.747565 117.544966 201.929451 87.611091 374.173441 58.360354 546.200069 27.774392h67.164909c0 29.871772 0 59.774595 0.124207 89.646367 105.141184 4.036726 211.493387-8.477124 315.858277 7.204003 3.726209 11.830712 7.638728 23.630373 11.582299 35.36793 26.518184 4.688812 69.15222 1.397328 73.313153 37.231033 8.539228 65.519167 2.577294 131.752524-1.707846 197.364846 6.086141 69.711151 10.247073 140.602269-1.956259 209.847645z m-566.383699-286.545437c-22.543562 1.024707-44.962916 2.266777-67.351219 3.477794-0.465776 82.846037 0.434724 165.785228-0.465776 248.631265-42.665088-80.951881-87.255383-160.754847-131.193593-240.899382l-69.431686 3.695157c0.248414 113.742516 0.372621 227.609239 0 341.320703 20.36994 1.211018 40.584621 2.453087 61.047717 3.788312-0.248414-82.846037 1.211018-165.785228-1.24207-248.631266 43.255071 86.448038 91.602627 170.163523 136.348181 255.773165 24.002993 1.335225 48.099142 2.701501 72.288446 3.726209V317.890779zM939.004553 800.931613l44.124519-2.732553c1.583639-58.501474 1.645742-117.065052 0-175.628629-14.780627-0.71419-29.530203-1.583639-44.124519-2.204674-0.124207 60.20932-0.124207 120.294432 0 180.565856z m44.124519-603.956301a2090.775614 2090.775614 0 0 0-77.567241-1.645743c-0.124207-14.904834-0.124207-29.685461 0-44.590295h-292.196853v78.591948c71.139531 0.124207 142.216959 0 213.418594 0-0.124207 14.904834-0.124207 29.685461 0 44.528193-71.201635 0-142.279063-0.062103-213.418594 0v56.234697c71.139531 0.124207 142.216959 0 213.418594 0-0.124207 14.904834-0.124207 29.685461 0 44.590295-71.201635 0-142.279063-0.124207-213.418594 0v56.172594c71.139531 0.124207 142.216959 0 213.418594 0-0.124207 14.904834-0.124207 29.65441-0.124207 44.559244-71.077428 0-142.154856-0.124207-213.294387 0v56.172594c71.139531 0.124207 142.216959 0 213.418594 0-0.124207 14.904834-0.124207 29.685461 0 44.590295-71.201635 0-142.279063-0.124207-213.418594 0v56.172594c71.139531 0.124207 142.216959 0 213.418594 0-0.124207 14.904834-0.124207 29.685461 0 44.559244-71.201635 0-142.279063-0.093155-213.418594 0v56.203645c71.139531 0.062103 142.216959 0 213.418594 0-0.124207 14.904834-0.124207 29.65441 0 44.497141-71.201635 0-142.279063-0.062103-213.418594 0v89.832677c97.409302 0 194.787552 0.062103 292.196853 0 0.062103-164.139486 0-328.216869 0-492.356355a2375.147429 2375.147429 0 0 0 77.132517-1.459432c2.515191-58.874095 1.894156-117.717138 0.434724-176.653336z m-0.18631 212.735456l-43.938209-1.95626c-0.124207 60.054061-0.124207 120.139174 0 180.255338 14.47011-0.52788 29.002323-1.211018 43.565588-1.894156 2.639398-58.78094 2.204673-117.530828 0.372621-176.404922z"  /></svg>